<mxfile host="app.diagrams.net" modified="2023-01-17T08:56:43.120Z" agent="5.0 (Macintosh; Intel Mac OS X 10_15_7) AppleWebKit/605.1.15 (KHTML, like Gecko) Version/16.2 Safari/605.1.15" etag="idqIGB_sqI9icfJkjI2P" version="20.8.5" type="github">
  <diagram name="Page-1" id="e7e014a7-5840-1c2e-5031-d8a46d1fe8dd">
    <mxGraphModel dx="1590" dy="1040" grid="1" gridSize="10" guides="1" tooltips="1" connect="1" arrows="1" fold="1" page="1" pageScale="1" pageWidth="1169" pageHeight="826" background="none" math="0" shadow="0">
      <root>
        <mxCell id="0" />
        <mxCell id="1" parent="0" />
        <mxCell id="FtfcrHDKb2C2_ADUAgps-41" value="" style="rounded=0;whiteSpace=wrap;html=1;" vertex="1" parent="1">
          <mxGeometry x="400" y="25" width="480" height="750" as="geometry" />
        </mxCell>
        <mxCell id="FtfcrHDKb2C2_ADUAgps-70" style="edgeStyle=orthogonalEdgeStyle;rounded=0;orthogonalLoop=1;jettySize=auto;html=1;exitX=1;exitY=0.3333333333333333;exitDx=0;exitDy=0;exitPerimeter=0;entryX=0;entryY=0.5;entryDx=0;entryDy=0;fontSize=16;" edge="1" parent="1" source="FtfcrHDKb2C2_ADUAgps-42" target="FtfcrHDKb2C2_ADUAgps-48">
          <mxGeometry relative="1" as="geometry" />
        </mxCell>
        <mxCell id="FtfcrHDKb2C2_ADUAgps-71" style="edgeStyle=orthogonalEdgeStyle;rounded=0;orthogonalLoop=1;jettySize=auto;html=1;exitX=1;exitY=0.3333333333333333;exitDx=0;exitDy=0;exitPerimeter=0;entryX=0;entryY=0.5;entryDx=0;entryDy=0;fontSize=16;" edge="1" parent="1" source="FtfcrHDKb2C2_ADUAgps-42" target="FtfcrHDKb2C2_ADUAgps-56">
          <mxGeometry relative="1" as="geometry" />
        </mxCell>
        <mxCell id="FtfcrHDKb2C2_ADUAgps-72" style="edgeStyle=orthogonalEdgeStyle;rounded=0;orthogonalLoop=1;jettySize=auto;html=1;exitX=1;exitY=0.3333333333333333;exitDx=0;exitDy=0;exitPerimeter=0;entryX=0;entryY=0.5;entryDx=0;entryDy=0;fontSize=16;" edge="1" parent="1" source="FtfcrHDKb2C2_ADUAgps-42" target="FtfcrHDKb2C2_ADUAgps-58">
          <mxGeometry relative="1" as="geometry" />
        </mxCell>
        <mxCell id="FtfcrHDKb2C2_ADUAgps-73" style="edgeStyle=orthogonalEdgeStyle;rounded=0;orthogonalLoop=1;jettySize=auto;html=1;exitX=1;exitY=0.3333333333333333;exitDx=0;exitDy=0;exitPerimeter=0;entryX=0;entryY=0.5;entryDx=0;entryDy=0;fontSize=16;" edge="1" parent="1" source="FtfcrHDKb2C2_ADUAgps-42" target="FtfcrHDKb2C2_ADUAgps-60">
          <mxGeometry relative="1" as="geometry" />
        </mxCell>
        <mxCell id="FtfcrHDKb2C2_ADUAgps-74" style="edgeStyle=orthogonalEdgeStyle;rounded=0;orthogonalLoop=1;jettySize=auto;html=1;exitX=1;exitY=0.3333333333333333;exitDx=0;exitDy=0;exitPerimeter=0;entryX=0;entryY=0.5;entryDx=0;entryDy=0;fontSize=16;" edge="1" parent="1" source="FtfcrHDKb2C2_ADUAgps-42" target="FtfcrHDKb2C2_ADUAgps-62">
          <mxGeometry relative="1" as="geometry" />
        </mxCell>
        <mxCell id="FtfcrHDKb2C2_ADUAgps-75" style="edgeStyle=orthogonalEdgeStyle;rounded=0;orthogonalLoop=1;jettySize=auto;html=1;exitX=1;exitY=0.3333333333333333;exitDx=0;exitDy=0;exitPerimeter=0;entryX=0;entryY=0.5;entryDx=0;entryDy=0;fontSize=16;" edge="1" parent="1" source="FtfcrHDKb2C2_ADUAgps-42" target="FtfcrHDKb2C2_ADUAgps-67">
          <mxGeometry relative="1" as="geometry" />
        </mxCell>
        <mxCell id="FtfcrHDKb2C2_ADUAgps-42" value="Actor" style="shape=umlActor;verticalLabelPosition=bottom;verticalAlign=top;html=1;outlineConnect=0;noLabel=1;" vertex="1" parent="1">
          <mxGeometry x="100" y="360" width="40" height="80" as="geometry" />
        </mxCell>
        <mxCell id="FtfcrHDKb2C2_ADUAgps-79" style="edgeStyle=orthogonalEdgeStyle;rounded=0;orthogonalLoop=1;jettySize=auto;html=1;exitX=0;exitY=0.3333333333333333;exitDx=0;exitDy=0;exitPerimeter=0;entryX=1;entryY=0.5;entryDx=0;entryDy=0;fontSize=16;" edge="1" parent="1" source="FtfcrHDKb2C2_ADUAgps-43" target="FtfcrHDKb2C2_ADUAgps-77">
          <mxGeometry relative="1" as="geometry" />
        </mxCell>
        <mxCell id="FtfcrHDKb2C2_ADUAgps-80" style="edgeStyle=orthogonalEdgeStyle;rounded=0;orthogonalLoop=1;jettySize=auto;html=1;exitX=0;exitY=0.3333333333333333;exitDx=0;exitDy=0;exitPerimeter=0;entryX=1;entryY=0.5;entryDx=0;entryDy=0;fontSize=16;" edge="1" parent="1" source="FtfcrHDKb2C2_ADUAgps-43" target="FtfcrHDKb2C2_ADUAgps-48">
          <mxGeometry relative="1" as="geometry" />
        </mxCell>
        <mxCell id="FtfcrHDKb2C2_ADUAgps-83" style="edgeStyle=orthogonalEdgeStyle;rounded=0;orthogonalLoop=1;jettySize=auto;html=1;exitX=0;exitY=0.3333333333333333;exitDx=0;exitDy=0;exitPerimeter=0;entryX=1;entryY=0.5;entryDx=0;entryDy=0;fontSize=16;" edge="1" parent="1" source="FtfcrHDKb2C2_ADUAgps-43" target="FtfcrHDKb2C2_ADUAgps-81">
          <mxGeometry relative="1" as="geometry" />
        </mxCell>
        <mxCell id="FtfcrHDKb2C2_ADUAgps-86" style="edgeStyle=orthogonalEdgeStyle;rounded=0;orthogonalLoop=1;jettySize=auto;html=1;exitX=0;exitY=0.3333333333333333;exitDx=0;exitDy=0;exitPerimeter=0;entryX=1;entryY=0.5;entryDx=0;entryDy=0;fontSize=16;" edge="1" parent="1" source="FtfcrHDKb2C2_ADUAgps-43" target="FtfcrHDKb2C2_ADUAgps-84">
          <mxGeometry relative="1" as="geometry" />
        </mxCell>
        <mxCell id="FtfcrHDKb2C2_ADUAgps-87" style="edgeStyle=orthogonalEdgeStyle;rounded=0;orthogonalLoop=1;jettySize=auto;html=1;exitX=0;exitY=0.3333333333333333;exitDx=0;exitDy=0;exitPerimeter=0;entryX=1;entryY=0.5;entryDx=0;entryDy=0;fontSize=16;" edge="1" parent="1" source="FtfcrHDKb2C2_ADUAgps-43" target="FtfcrHDKb2C2_ADUAgps-60">
          <mxGeometry relative="1" as="geometry" />
        </mxCell>
        <mxCell id="FtfcrHDKb2C2_ADUAgps-88" style="edgeStyle=orthogonalEdgeStyle;rounded=0;orthogonalLoop=1;jettySize=auto;html=1;exitX=0;exitY=0.3333333333333333;exitDx=0;exitDy=0;exitPerimeter=0;entryX=1;entryY=0.5;entryDx=0;entryDy=0;fontSize=16;" edge="1" parent="1" source="FtfcrHDKb2C2_ADUAgps-43" target="FtfcrHDKb2C2_ADUAgps-58">
          <mxGeometry relative="1" as="geometry" />
        </mxCell>
        <mxCell id="FtfcrHDKb2C2_ADUAgps-43" value="Actor" style="shape=umlActor;verticalLabelPosition=bottom;verticalAlign=top;html=1;outlineConnect=0;noLabel=1;" vertex="1" parent="1">
          <mxGeometry x="1030" y="360" width="40" height="80" as="geometry" />
        </mxCell>
        <mxCell id="FtfcrHDKb2C2_ADUAgps-46" value="Student" style="text;html=1;strokeColor=none;fillColor=none;align=center;verticalAlign=middle;whiteSpace=wrap;rounded=0;fontSize=16;" vertex="1" parent="1">
          <mxGeometry x="95" y="450" width="60" height="30" as="geometry" />
        </mxCell>
        <mxCell id="FtfcrHDKb2C2_ADUAgps-47" value="admin" style="text;html=1;strokeColor=none;fillColor=none;align=center;verticalAlign=middle;whiteSpace=wrap;rounded=0;fontSize=16;" vertex="1" parent="1">
          <mxGeometry x="1020" y="450" width="60" height="30" as="geometry" />
        </mxCell>
        <mxCell id="FtfcrHDKb2C2_ADUAgps-48" value="" style="ellipse;whiteSpace=wrap;html=1;fontSize=16;" vertex="1" parent="1">
          <mxGeometry x="490" y="47" width="300" height="65" as="geometry" />
        </mxCell>
        <mxCell id="FtfcrHDKb2C2_ADUAgps-54" value="Registeration / Login / Logut&amp;nbsp;" style="text;html=1;strokeColor=none;fillColor=none;align=center;verticalAlign=middle;whiteSpace=wrap;rounded=0;fontSize=16;" vertex="1" parent="1">
          <mxGeometry x="520" y="64.5" width="240" height="30" as="geometry" />
        </mxCell>
        <mxCell id="FtfcrHDKb2C2_ADUAgps-56" value="" style="ellipse;whiteSpace=wrap;html=1;fontSize=16;" vertex="1" parent="1">
          <mxGeometry x="490" y="123.5" width="300" height="65" as="geometry" />
        </mxCell>
        <mxCell id="FtfcrHDKb2C2_ADUAgps-57" value="Fees Payment" style="text;html=1;strokeColor=none;fillColor=none;align=center;verticalAlign=middle;whiteSpace=wrap;rounded=0;fontSize=16;" vertex="1" parent="1">
          <mxGeometry x="520" y="141" width="240" height="30" as="geometry" />
        </mxCell>
        <mxCell id="FtfcrHDKb2C2_ADUAgps-58" value="" style="ellipse;whiteSpace=wrap;html=1;fontSize=16;" vertex="1" parent="1">
          <mxGeometry x="490" y="204" width="300" height="65" as="geometry" />
        </mxCell>
        <mxCell id="FtfcrHDKb2C2_ADUAgps-60" value="" style="ellipse;whiteSpace=wrap;html=1;fontSize=16;" vertex="1" parent="1">
          <mxGeometry x="490" y="282.5" width="300" height="65" as="geometry" />
        </mxCell>
        <mxCell id="FtfcrHDKb2C2_ADUAgps-62" value="" style="ellipse;whiteSpace=wrap;html=1;fontSize=16;" vertex="1" parent="1">
          <mxGeometry x="490" y="360" width="300" height="65" as="geometry" />
        </mxCell>
        <mxCell id="FtfcrHDKb2C2_ADUAgps-61" value="Course Selection" style="text;html=1;strokeColor=none;fillColor=none;align=center;verticalAlign=middle;whiteSpace=wrap;rounded=0;fontSize=16;" vertex="1" parent="1">
          <mxGeometry x="520" y="221.5" width="240" height="30" as="geometry" />
        </mxCell>
        <mxCell id="FtfcrHDKb2C2_ADUAgps-59" value="Feedback Submission" style="text;html=1;strokeColor=none;fillColor=none;align=center;verticalAlign=middle;whiteSpace=wrap;rounded=0;fontSize=16;" vertex="1" parent="1">
          <mxGeometry x="520" y="300" width="240" height="30" as="geometry" />
        </mxCell>
        <mxCell id="FtfcrHDKb2C2_ADUAgps-55" value="Result Check" style="text;html=1;strokeColor=none;fillColor=none;align=center;verticalAlign=middle;whiteSpace=wrap;rounded=0;fontSize=16;" vertex="1" parent="1">
          <mxGeometry x="520" y="377.5" width="240" height="30" as="geometry" />
        </mxCell>
        <mxCell id="FtfcrHDKb2C2_ADUAgps-67" value="" style="ellipse;whiteSpace=wrap;html=1;fontSize=16;" vertex="1" parent="1">
          <mxGeometry x="490" y="444" width="300" height="65" as="geometry" />
        </mxCell>
        <mxCell id="FtfcrHDKb2C2_ADUAgps-66" value="Carry Subject Registration" style="text;html=1;strokeColor=none;fillColor=none;align=center;verticalAlign=middle;whiteSpace=wrap;rounded=0;fontSize=16;" vertex="1" parent="1">
          <mxGeometry x="520" y="461.5" width="240" height="30" as="geometry" />
        </mxCell>
        <mxCell id="FtfcrHDKb2C2_ADUAgps-77" value="" style="ellipse;whiteSpace=wrap;html=1;fontSize=16;" vertex="1" parent="1">
          <mxGeometry x="490" y="520" width="300" height="65" as="geometry" />
        </mxCell>
        <mxCell id="FtfcrHDKb2C2_ADUAgps-78" value="Fees / Detail Verification" style="text;html=1;strokeColor=none;fillColor=none;align=center;verticalAlign=middle;whiteSpace=wrap;rounded=0;fontSize=16;" vertex="1" parent="1">
          <mxGeometry x="520" y="537.5" width="240" height="30" as="geometry" />
        </mxCell>
        <mxCell id="FtfcrHDKb2C2_ADUAgps-81" value="" style="ellipse;whiteSpace=wrap;html=1;fontSize=16;" vertex="1" parent="1">
          <mxGeometry x="490" y="600" width="300" height="65" as="geometry" />
        </mxCell>
        <mxCell id="FtfcrHDKb2C2_ADUAgps-82" value="Publish Result" style="text;html=1;strokeColor=none;fillColor=none;align=center;verticalAlign=middle;whiteSpace=wrap;rounded=0;fontSize=16;" vertex="1" parent="1">
          <mxGeometry x="520" y="617.5" width="240" height="30" as="geometry" />
        </mxCell>
        <mxCell id="FtfcrHDKb2C2_ADUAgps-84" value="" style="ellipse;whiteSpace=wrap;html=1;fontSize=16;" vertex="1" parent="1">
          <mxGeometry x="490" y="680" width="300" height="65" as="geometry" />
        </mxCell>
        <mxCell id="FtfcrHDKb2C2_ADUAgps-85" value="Resolve Discrepancy" style="text;html=1;strokeColor=none;fillColor=none;align=center;verticalAlign=middle;whiteSpace=wrap;rounded=0;fontSize=16;" vertex="1" parent="1">
          <mxGeometry x="520" y="697.5" width="240" height="30" as="geometry" />
        </mxCell>
      </root>
    </mxGraphModel>
  </diagram>
</mxfile>
